<?xml version="1.0" encoding="UTF-8"?>
<svg version="1.1" xmlns="http://www.w3.org/2000/svg" width="300" height="300">
<path d="M0 0 C32.53114906 25.49346529 53.60940942 61.09699326 58.75146484 102.37255859 C61.17549352 148.90777239 49.89863133 188.99443624 18.74755859 224.12255859 C-4.97460164 250.21464874 -41.56149101 268.72197407 -76.95117188 270.56542969 C-124.03153519 271.51917554 -163.4494774 259.921306 -198.24853516 227.37255859 C-225.76655968 200.206327 -241.29042282 162.37008846 -241.61181641 123.88772583 C-241.82772809 79.85017572 -226.4707172 41.96020774 -195.53369141 10.62255859 C-142.67441311 -39.05429619 -57.74586536 -44.30825083 0 0 Z " fill="#F29200" transform="translate(241.24853515625,29.62744140625)"/>
<path d="M0 0 C1.29276604 -0.00642014 1.29276604 -0.00642014 2.61164856 -0.01296997 C5.37005938 -0.02287494 8.1282937 -0.02304085 10.88671875 -0.01953125 C11.82763367 -0.01859467 12.76854858 -0.01765808 13.73797607 -0.01669312 C65.55727081 0.09550814 65.55727081 0.09550814 79.57421875 14.16796875 C84.27973613 20.6579161 86.37698847 29.0329318 88.953125 36.55859375 C90.89432071 42.17105022 93.08416017 47.68345529 95.30224609 53.19140625 C96.75083317 56.83565048 97.98270354 60.26550479 98.57421875 64.16796875 C99.38246094 64.1215625 100.19070312 64.07515625 101.0234375 64.02734375 C109.67117627 63.7352609 109.67117627 63.7352609 113.57421875 65.60546875 C117.30400502 70.38425741 119.34138601 75.07247407 120.01171875 81.10546875 C119.86734375 82.11609375 119.72296875 83.12671875 119.57421875 84.16796875 C116.26050875 86.37710875 115.22961665 86.39278428 111.38671875 86.29296875 C110.48566406 86.27492188 109.58460938 86.256875 108.65625 86.23828125 C107.96917969 86.21507812 107.28210938 86.191875 106.57421875 86.16796875 C107.06023056 87.17403419 107.06023056 87.17403419 107.55606079 88.20042419 C108.76925484 91.73642504 108.86962025 94.95748656 108.86474609 98.64868164 C108.87146332 99.38425797 108.87818054 100.11983429 108.88510132 100.87770081 C108.90403347 103.29874499 108.90800242 105.7195115 108.91015625 108.140625 C108.91658525 109.82783623 108.92331369 111.51504635 108.93032837 113.20225525 C108.9422875 116.73357734 108.94601037 120.26480167 108.94482422 123.79614258 C108.94462059 128.32135131 108.97197401 132.84593513 109.00636864 137.37099552 C109.02859667 140.85313298 109.0326631 144.33511872 109.03160477 147.81731987 C109.03396494 149.48589682 109.04281187 151.15447768 109.0582695 152.8229847 C109.07785659 155.15465444 109.0721224 157.48495888 109.06005859 159.81665039 C109.07129761 160.50507019 109.08253662 161.19348999 109.09411621 161.902771 C109.05074085 165.20026167 108.75785691 166.92194085 106.76333618 169.59408569 C103.61558705 171.85718449 100.62405557 171.7604641 96.88671875 171.734375 C96.14719971 171.74057358 95.40768066 171.74677216 94.64575195 171.75315857 C93.0857881 171.76024688 91.52574845 171.75709982 89.96582031 171.74438477 C87.58126527 171.73050975 85.20063035 171.7646045 82.81640625 171.80273438 C81.29817613 171.80368557 79.7799411 171.80182671 78.26171875 171.796875 C77.55120361 171.81013321 76.84068848 171.82339142 76.10864258 171.83705139 C72.33478258 171.76619187 70.87040682 171.46370823 68.15625 168.75366211 C63.78232588 161.60486112 65.57421875 162.57291519 65.57421875 150.16796875 C30.92421875 150.16796875 -3.72578125 150.16796875 -39.42578125 150.16796875 C-39.42578125 155.11796875 -39.42578125 160.06796875 -39.42578125 165.16796875 C-41.43920898 169.05786133 -41.43920898 169.05786133 -44.42578125 171.16796875 C-47.30683062 171.77235078 -49.34184044 171.99185035 -52.2109375 171.9296875 C-52.9490416 171.93305618 -53.68714569 171.93642487 -54.44761658 171.93989563 C-56.00168862 171.9395977 -57.55582088 171.92443466 -59.10961914 171.89526367 C-61.48571082 171.85551175 -63.85623585 171.87458122 -66.23242188 171.90039062 C-67.74611534 171.89283252 -69.25979647 171.88188003 -70.7734375 171.8671875 C-71.48081558 171.8741716 -72.18819366 171.8811557 -72.91700745 171.88835144 C-76.37934905 171.7893779 -78.07188745 171.504474 -80.61390686 169.08735657 C-82.89866469 165.40603395 -82.92104199 163.11255411 -82.91162109 158.79492188 C-82.91541779 158.07070541 -82.91921448 157.34648895 -82.92312622 156.60032654 C-82.93051086 154.21617752 -82.90918011 151.8332587 -82.88671875 149.44921875 C-82.88433292 147.786826 -82.8834293 146.12443052 -82.88394165 144.46203613 C-82.88081722 140.98184268 -82.86428003 137.50206222 -82.83740234 134.02197266 C-82.80342301 129.5665094 -82.79577403 125.11149959 -82.79729271 120.65592194 C-82.7967482 117.22434175 -82.78576811 113.79286019 -82.77128983 110.36131287 C-82.76493668 108.71871181 -82.76098641 107.07609961 -82.75950241 105.43348694 C-82.75515354 103.13580393 -82.73761902 100.83859604 -82.71630859 98.54101562 C-82.708685 97.23483276 -82.7010614 95.9286499 -82.69320679 94.58288574 C-82.43871279 91.33309932 -81.83003277 89.08445421 -80.42578125 86.16796875 C-81.45638672 86.22017578 -81.45638672 86.22017578 -82.5078125 86.2734375 C-83.40886719 86.30050781 -84.30992188 86.32757813 -85.23828125 86.35546875 C-86.57826172 86.40767578 -86.57826172 86.40767578 -87.9453125 86.4609375 C-90.42578125 86.16796875 -90.42578125 86.16796875 -92.2578125 84.89453125 C-93.97742613 82.35249372 -93.43477483 80.14069996 -92.9375 77.2265625 C-91.67802941 72.15983731 -89.33364191 68.57158933 -85.42578125 65.16796875 C-82.78119746 63.84567686 -80.74816824 64.07119681 -77.80078125 64.10546875 C-76.29644531 64.11900391 -76.29644531 64.11900391 -74.76171875 64.1328125 C-73.99085937 64.14441406 -73.22 64.15601563 -72.42578125 64.16796875 C-72.27882813 63.64332031 -72.131875 63.11867187 -71.98046875 62.578125 C-68.88778834 51.89593575 -65.05788324 41.43327663 -61.12695312 31.03417969 C-60.49935671 29.36379425 -59.89096115 27.68622401 -59.28515625 26.0078125 C-55.63495722 16.45817208 -51.63353178 11.55276815 -42.48828125 6.91796875 C-29.25903934 1.20257046 -14.27969067 0.02173756 0 0 Z " fill="#FEFDFB" transform="translate(137.42578125,56.83203125)"/>
<path d="M0 0 C1.49803665 -0.0049926 1.49803665 -0.0049926 3.02633667 -0.01008606 C5.13246199 -0.01512749 7.23859522 -0.01749525 9.34472656 -0.01733398 C12.52422681 -0.0195104 15.70337393 -0.03766846 18.8828125 -0.05664062 C29.58092901 -0.08690396 39.90086425 0.08096978 50.4296875 2.16796875 C51.25388184 2.32998779 52.07807617 2.49200684 52.92724609 2.65893555 C54.98431146 3.09625908 57.01740542 3.58464407 59.0546875 4.10546875 C59.72113281 4.26208984 60.38757813 4.41871094 61.07421875 4.58007812 C64.81868249 5.51806255 67.7855541 6.30642882 70.4296875 9.16796875 C71.83365556 11.91871755 72.8844745 14.76499399 73.9296875 17.66796875 C74.23156982 18.47806396 74.53345215 19.28815918 74.84448242 20.12280273 C75.44388383 21.73595685 76.03801039 23.3510822 76.62646484 24.96826172 C77.30019274 26.81333416 77.99699772 28.64995759 78.69921875 30.484375 C81.34302172 37.44539929 83.9168649 44.61671905 83.4296875 52.16796875 C76.31693459 54.22522413 69.0918369 55.09122437 61.75854492 55.97290039 C59.63197776 56.22868974 57.50639045 56.49161213 55.38085938 56.75585938 C51.39938668 57.24734859 47.41541313 57.71221015 43.4296875 58.16796875 C42.48287109 58.27906982 41.53605469 58.3901709 40.56054688 58.50463867 C32.24265822 59.38115581 23.90869127 59.3665028 15.5546875 59.35546875 C14.39317169 59.35506088 14.39317169 59.35506088 13.20819092 59.35464478 C0.84492062 59.33471893 -11.30550164 58.81646483 -23.5703125 57.16796875 C-24.48006836 57.05018066 -25.38982422 56.93239258 -26.32714844 56.81103516 C-35.5072147 55.61220438 -44.54913896 54.26928628 -53.5703125 52.16796875 C-52.37691699 43.17744873 -50.11095101 34.86837613 -47.1953125 26.29296875 C-46.61523438 24.51792969 -46.61523438 24.51792969 -46.0234375 22.70703125 C-41.3433465 8.76098828 -41.3433465 8.76098828 -35.6328125 5.48046875 C-24.12698297 1.28976791 -12.14413527 0.0143333 0 0 Z " fill="#F29303" transform="translate(135.5703125,72.83203125)"/>
<path d="M0 0 C8.94722663 2.4792192 20.33392881 6.66596006 27.046875 13.37890625 C27.421875 16.31640625 27.421875 16.31640625 27.046875 19.37890625 C24.71667594 21.80285304 23.29189014 22.34835142 19.93408203 22.76708984 C18.13753174 22.77216553 18.13753174 22.77216553 16.3046875 22.77734375 C14.99113281 22.78121094 13.67757812 22.78507812 12.32421875 22.7890625 C11.64214355 22.78277832 10.96006836 22.77649414 10.25732422 22.77001953 C8.18519661 22.75400918 6.11503464 22.7698539 4.04296875 22.7890625 C2.72683594 22.78519531 1.41070312 22.78132813 0.0546875 22.77734375 C-1.14526855 22.77395996 -2.34522461 22.77057617 -3.58154297 22.76708984 C-7.34384802 22.33392076 -9.74308703 21.36512818 -12.953125 19.37890625 C-15.39821378 15.71127308 -15.25198224 13.7445885 -15.265625 9.37890625 C-15.28238281 8.14140625 -15.29914063 6.90390625 -15.31640625 5.62890625 C-14.953125 2.37890625 -14.953125 2.37890625 -13.67578125 0.46875 C-9.59687533 -2.11178232 -4.46478836 -0.93902295 0 0 Z " fill="#F29405" transform="translate(80.953125,152.62109375)"/>
<path d="M0 0 C0.99 0.66 1.98 1.32 3 2 C3.38717284 4.73121929 3.55524168 7.14103417 3.5625 9.875 C3.59923828 10.59558594 3.63597656 11.31617188 3.67382812 12.05859375 C3.69140625 14.1796875 3.69140625 14.1796875 3 18 C-3.98652009 24.27483727 -12.70456314 23.24275247 -21.5625 23.3125 C-22.79419922 23.34150391 -24.02589844 23.37050781 -25.29492188 23.40039062 C-26.47763672 23.40876953 -27.66035156 23.41714844 -28.87890625 23.42578125 C-30.49647827 23.44765503 -30.49647827 23.44765503 -32.14672852 23.4699707 C-35.68011546 22.88797619 -36.83186082 21.7940136 -39 19 C-39.5625 16.5 -39.5625 16.5 -39 14 C-30.54893901 4.98553494 -12.18703894 -1.42182121 0 0 Z " fill="#F29405" transform="translate(232,152)"/>
</svg>
